<svg xmlns="http://www.w3.org/2000/svg" xmlns:xlink="http://www.w3.org/1999/xlink" version="1.1" x="0px" y="0px" viewBox="0 0 50 62.5" enable-background="new 0 0 50 50" xml:space="preserve"><g><path fill-rule="evenodd" clip-rule="evenodd" d="M10.681,30.9c0,1.278-1.036,2.315-2.315,2.315c-1.279,0-2.315-1.037-2.315-2.315   c0-1.279,1.036-2.316,2.315-2.316C9.645,28.584,10.681,29.621,10.681,30.9 M16.683,28.584c1.278,0,2.315,1.037,2.315,2.316   c0,1.278-1.037,2.315-2.315,2.315c-1.279,0-2.315-1.037-2.315-2.315C14.369,29.621,15.404,28.584,16.683,28.584z M41.635,33.215   c-1.279,0-2.316-1.036-2.316-2.315c0-1.279,1.036-2.316,2.316-2.316c1.278,0,2.315,1.037,2.315,2.316   C43.95,32.179,42.913,33.215,41.635,33.215z M31.002,30.9c0-1.279,1.037-2.316,2.316-2.316c1.278,0,2.315,1.037,2.315,2.316   c0,1.279-1.037,2.315-2.315,2.315C32.039,33.215,31.002,32.179,31.002,30.9z M5.846,36.746h38.308c3.216,0,5.846-2.632,5.846-5.847   c0-3.215-2.634-5.847-5.846-5.847H5.846C2.634,25.053,0,27.688,0,30.901C0,34.111,2.63,36.746,5.846,36.746z M25,28.584   c1.279,0,2.315,1.037,2.315,2.316c0,1.278-1.037,2.315-2.315,2.315c-1.279,0-2.315-1.037-2.315-2.315   C22.685,29.621,23.721,28.584,25,28.584z M22.731,23.703H33.74v-9.193H29.1v1.641h-1.729v-1.641h-4.64V23.703z M35.344,14.511   v9.193h11.01v-9.193h-4.641v1.641h-1.728v-1.641H35.344z M21.315,23.703v-9.177l-4.794-1.822l-4.555,5.298l-4.574-5.298   l-4.777,1.823v9.176H21.315z M11.967,11.727c2.844,0,5.149-2.306,5.149-5.149c0-2.844-2.306-5.149-5.149-5.149   c-2.844,0-5.149,2.305-5.149,5.149C6.818,9.422,9.123,11.727,11.967,11.727z M3.576,45.803h35.323v2.768l7.71-4.701l-7.71-4.696   v2.765H3.576V45.803z"/></g><text x="0" y="65" fill="#000000" font-size="5px" font-weight="bold" font-family="'Helvetica Neue', Helvetica, Arial-Unicode, Arial, Sans-serif">Created by Georgiana Ionescu</text><text x="0" y="70" fill="#000000" font-size="5px" font-weight="bold" font-family="'Helvetica Neue', Helvetica, Arial-Unicode, Arial, Sans-serif">from the Noun Project</text></svg>